<?xml version="1.0" encoding="UTF-8"?>
<svg version="1.1" xmlns="http://www.w3.org/2000/svg" width="1499" height="1380">
<path d="M0 0 C70.28513715 -1.61261345 141.45949392 11.91459042 208 34 C209.6406543 34.53874756 209.6406543 34.53874756 211.31445312 35.08837891 C258.6777372 50.71938567 304.367828 72.14427873 347 98 C348.00401855 98.6084375 349.00803711 99.216875 350.04248047 99.84375 C364.06839616 108.38609992 377.68962246 117.38259711 391 127 C391.80808105 127.58136719 392.61616211 128.16273438 393.44873047 128.76171875 C404.00262313 136.37312313 414.25495557 144.27710757 424.27636719 152.57617188 C426.71230065 154.58840473 429.17042475 156.5730775 431.625 158.5625 C440.01727542 165.45392139 448.33428886 172.43874019 456.30126953 179.8215332 C457.59169257 181.0125773 458.89831836 182.18623927 460.21826172 183.34448242 C464.23365119 186.97804038 467.56792058 190.67263788 470.644104 195.1078186 C477.46393207 204.82029151 485.16308547 215.07883309 497.33190918 217.72436523 C515.65097318 220.16479312 534.68117034 218.6170983 553 217 C552.97255707 217.85459305 552.94511414 218.7091861 552.9168396 219.5896759 C552.670744 227.77830852 552.51704704 235.96292705 552.45853233 244.15512562 C552.425436 248.36430399 552.36080242 252.5672727 552.21484375 256.77416992 C551.41499094 280.71708168 554.32614985 295.4682207 569.78871155 314.21694946 C573.1842855 318.49050043 576.00016221 323.08034819 578.8125 327.75 C579.3581662 328.6426506 579.9038324 329.53530121 580.46603394 330.45500183 C607.16983048 374.20510407 628.35536004 420.54974412 645 469 C645.36802734 470.05010254 645.73605469 471.10020508 646.11523438 472.18212891 C657.91563288 506.01029103 666.50037205 541.60498605 672 577 C672.10981201 577.70650696 672.21962402 578.41301392 672.33276367 579.14093018 C677.3785002 611.91022586 680.37647116 644.84385409 681 678 C681.03287109 679.40113037 681.03287109 679.40113037 681.06640625 680.83056641 C682.33487482 739.71921986 674.88155723 798.8408468 661 856 C660.54052979 857.89975586 660.54052979 857.89975586 660.07177734 859.83789062 C645.4620098 919.28725265 622.40121153 977.54148618 591.50097656 1030.41992188 C590.08262798 1032.85796803 588.689156 1035.30821903 587.3046875 1037.765625 C582.09356797 1046.97416937 576.57089507 1055.95812899 570.875 1064.875 C570.23006592 1065.88481934 569.58513184 1066.89463867 568.9206543 1067.93505859 C568.28426025 1068.92328613 567.64786621 1069.91151367 566.9921875 1070.9296875 C566.08924407 1072.36108551 566.08924407 1072.36108551 565.16805935 1073.82140064 C563 1077 563 1077 560.68053532 1079.54236126 C551.52483796 1090.19878461 552.75291507 1102.00523296 552.88647461 1115.43481445 C552.87914262 1118.00814169 552.86785753 1120.58146022 552.85293579 1123.15475464 C552.82712094 1128.6736648 552.83380899 1134.1917449 552.86323357 1139.7106266 C552.90572645 1147.68960681 552.89817559 1155.6679386 552.87881822 1163.64698007 C552.84874562 1176.59542778 552.85856071 1189.54352068 552.89379883 1202.49194336 C552.92792191 1215.06231107 552.94304882 1227.6324676 552.93286133 1240.20288086 C552.9319276 1241.36716652 552.9319276 1241.36716652 552.93097501 1242.5549731 C552.92773545 1246.44929777 552.92412488 1250.34362199 552.92032993 1254.23794615 C552.88937789 1286.49211255 552.9233022 1318.74590356 553 1351 C552.2438367 1350.99831877 551.48767339 1350.99663753 550.70859605 1350.99490535 C505.73072281 1350.89618403 460.7530553 1350.85030409 415.77507081 1350.87152898 C410.35501152 1350.87404171 404.93495214 1350.87612009 399.51489258 1350.87792969 C398.43601429 1350.8782972 397.357136 1350.87866471 396.24556442 1350.87904336 C378.85610649 1350.88393504 361.46688152 1350.85377002 344.07748494 1350.81027745 C326.18799829 1350.76632849 308.29878801 1350.76091477 290.40926999 1350.7900821 C279.40125181 1350.80685099 268.39408559 1350.79479882 257.3861688 1350.74393077 C249.80183363 1350.7117852 242.21807256 1350.7176104 234.63374696 1350.75115602 C230.28034925 1350.76935614 225.92851825 1350.77288482 221.57525253 1350.73056984 C199.03134084 1350.52532699 179.27097818 1353.56261971 157.71573466 1360.25684949 C149.64705239 1362.76181523 141.46049566 1364.57456006 133.1875 1366.25 C132.05778275 1366.48364761 132.05778275 1366.48364761 130.90524292 1366.72201538 C101.88976729 1372.70114933 72.52799507 1376.68397183 43 1379 C41.33731331 1379.13099342 41.33731331 1379.13099342 39.64103699 1379.26463318 C30.1514457 1379.95657697 20.72183862 1380.1791317 11.2109375 1380.203125 C10.4324004 1380.20595238 9.6538633 1380.20877975 8.85173416 1380.21169281 C4.71121148 1380.22657231 0.57072247 1380.23586598 -3.56982422 1380.24023438 C-6.90066805 1380.2445664 -10.23124512 1380.25826665 -13.56201172 1380.28125 C-43.69555772 1380.48467425 -73.63966926 1379.02816445 -103.5 1374.75 C-104.60594009 1374.59559952 -104.60594009 1374.59559952 -105.73422241 1374.43807983 C-134.4175691 1370.41618438 -162.53244887 1364.44940254 -190.57421875 1357.234375 C-191.28001068 1357.05333725 -191.98580261 1356.8722995 -192.71298218 1356.68577576 C-193.39510773 1356.50813187 -194.07723328 1356.33048798 -194.7800293 1356.14746094 C-195.75513323 1355.89466424 -195.75513323 1355.89466424 -196.74993622 1355.63676053 C-199 1355 -199 1355 -201.062168 1354.24571103 C-208.74573618 1351.5347059 -216.22147833 1351.57217003 -224.28713989 1351.60127258 C-225.82607639 1351.59582629 -227.36500871 1351.5890719 -228.90393436 1351.58113068 C-233.11137399 1351.56317078 -237.31863652 1351.56365438 -241.5261054 1351.56726015 C-246.07133149 1351.56788556 -250.61649897 1351.55124932 -255.16169739 1351.53674316 C-263.02946536 1351.51397971 -270.89718912 1351.50207594 -278.76498795 1351.49761391 C-290.14039766 1351.49114682 -301.51572754 1351.46819957 -312.89110504 1351.44127061 C-331.34829056 1351.39802259 -349.80547271 1351.36804449 -368.26269531 1351.34643555 C-386.18881891 1351.32541992 -404.11491498 1351.2981397 -422.04101562 1351.26245117 C-423.69933781 1351.25915293 -423.69933781 1351.25915293 -425.39116146 1351.25578807 C-430.93754576 1351.24471827 -436.4839298 1351.23352549 -442.03031373 1351.22227156 C-488.02018486 1351.12911456 -534.0100714 1351.05750356 -580 1351 C-579.99679989 1350.43243038 -579.99359977 1349.86486076 -579.99030268 1349.28009206 C-579.80196954 1315.55963037 -579.68742485 1281.83977149 -579.66726766 1248.1187944 C-579.66477837 1244.06007145 -579.66167934 1240.00134917 -579.65820312 1235.94262695 C-579.65718053 1234.7307189 -579.65718053 1234.7307189 -579.65613727 1233.49432787 C-579.64368212 1220.45228313 -579.58195508 1207.4109212 -579.50166626 1194.36913774 C-579.42024789 1180.96356164 -579.39259628 1167.55863222 -579.41372812 1154.1528222 C-579.42508311 1145.89574433 -579.39567256 1137.64095915 -579.3122649 1129.38428589 C-579.2589242 1123.70419705 -579.25832308 1118.02554418 -579.29715051 1112.34534571 C-579.31798817 1109.07829 -579.30966306 1105.81618672 -579.25374794 1102.54942703 C-578.96844763 1084.80551782 -582.1676118 1073.96415739 -593.37256503 1060.0734762 C-595.58037609 1057.26055662 -597.39685696 1054.32439111 -599.2265625 1051.25390625 C-599.79681152 1050.30644531 -600.36706055 1049.35898438 -600.95458984 1048.3828125 C-601.78144287 1046.98675781 -601.78144287 1046.98675781 -602.625 1045.5625 C-603.24197754 1044.52738281 -603.85895508 1043.49226563 -604.49462891 1042.42578125 C-610.14109835 1032.88654881 -615.49072317 1023.19824174 -620.70361328 1013.41650391 C-621.85502769 1011.27023276 -623.02827111 1009.1386759 -624.21484375 1007.01171875 C-660.28078242 941.74157452 -682.10798572 866.76511098 -696.25 771.5625 C-696.47671387 769.68473877 -696.47671387 769.68473877 -696.70800781 767.76904297 C-697.18868094 763.51622504 -697.609168 759.26187291 -698 755 C-698.08786774 754.06428162 -698.17573547 753.12856323 -698.26626587 752.16448975 C-700.12178858 731.76405853 -700.27926374 711.47394012 -700.19561768 691.00970459 C-700.18468659 687.63019233 -700.18515288 684.25071984 -700.18575573 680.87119293 C-700.18548236 677.5680836 -700.17997796 674.26499963 -700.17275429 670.9618988 C-700.16961582 669.40881032 -700.16761178 667.85571904 -700.16686058 666.30262756 C-700.15790052 657.49172195 -699.91464831 648.77338476 -699 640 C-697.1128125 639.9690625 -697.1128125 639.9690625 -695.1875 639.9375 C-694.47980469 639.92589844 -693.77210938 639.91429687 -693.04296875 639.90234375 C-691 640 -691 640 -688 641 C-688.06928711 642.2063208 -688.13857422 643.4126416 -688.20996094 644.65551758 C-689.00681701 659.33387307 -689.24259084 673.98898697 -689.25 688.6875 C-689.25067474 689.90588562 -689.25134949 691.12427124 -689.25204468 692.37957764 C-689.17319057 782.86135265 -671.23861822 873.9342377 -581 1058 C-580.67 946.79 -580.34 835.58 -580 721 C-575.71 721 -571.42 721 -567 721 C-567.01162705 723.75674434 -567.01162705 723.75674434 -567.023489 726.56918049 C-567.20458741 770.25122319 -567.31304359 813.93294879 -567.33273234 857.61537604 C-567.33522178 862.99854858 -567.33832084 868.3817206 -567.34179688 873.76489258 C-567.34247861 874.83653 -567.34316034 875.90816742 -567.34386273 877.0122787 C-567.3563355 894.33643655 -567.41812928 911.66008218 -567.49833374 928.98404375 C-567.57960142 946.77628454 -567.60744138 964.56803824 -567.58627188 982.36045474 C-567.57488781 993.32895978 -567.60456709 1004.29574353 -567.6877351 1015.26394584 C-567.7408589 1022.79783162 -567.7418186 1030.33063169 -567.70284949 1037.86459867 C-567.68190983 1042.20420643 -567.68291845 1046.54068228 -567.74625206 1050.87994766 C-567.98604749 1068.33063118 -568.18018278 1082.82236817 -555.55881691 1096.36117077 C-554.96004274 1096.9648578 -554.36126856 1097.56854483 -553.74434972 1098.19052541 C-550.99354483 1101.04403093 -548.68434386 1104.20729959 -546.3125 1107.375 C-541.88020248 1113.00789538 -537.26392533 1118.47958281 -532.60546875 1123.92578125 C-530.24135813 1126.69699155 -527.96156042 1129.52927189 -525.6875 1132.375 C-520.9372102 1138.21691833 -515.79742915 1143.66366983 -510.625 1149.12890625 C-507.94766903 1151.96239317 -505.34362838 1154.8519354 -502.75390625 1157.765625 C-498.1188138 1162.93258915 -493.27968593 1167.87269991 -488.36108398 1172.76928711 C-486.93160283 1174.19337492 -485.50759489 1175.62278044 -484.08398438 1177.05273438 C-479.43642903 1181.69382131 -474.74569831 1186.21177882 -469.75854492 1190.48657227 C-467.16950882 1192.71473203 -464.68697559 1195.04681715 -462.1875 1197.375 C-457.54095872 1201.66751208 -452.7590076 1205.73338031 -447.828125 1209.69921875 C-445.32183424 1211.73817628 -442.86405682 1213.823751 -440.41699219 1215.93310547 C-432.56445302 1222.68399505 -424.35113502 1228.88233028 -416 1235 C-414.92226318 1235.79325684 -414.92226318 1235.79325684 -413.82275391 1236.60253906 C-402.7624958 1244.7321343 -391.51082082 1252.52214954 -380 1260 C-378.86159668 1260.74032471 -378.86159668 1260.74032471 -377.70019531 1261.49560547 C-365.39378553 1269.46391505 -352.82433934 1276.89777896 -340 1284 C-338.95199219 1284.58152832 -337.90398437 1285.16305664 -336.82421875 1285.76220703 C-301.6193639 1305.20037527 -265.04677493 1320.96344492 -227 1334 C-226.40079333 1334.24754437 -225.80158667 1334.49508875 -225.18422222 1334.75013447 C-218.40745838 1337.36883907 -212.05988752 1337.40517595 -204.86108398 1337.34057617 C-203.57229843 1337.34101425 -202.28351288 1337.34145233 -200.95567322 1337.34190369 C-197.44792543 1337.34275886 -193.94049002 1337.32521144 -190.43281436 1337.30418181 C-186.75731442 1337.28533459 -183.08180607 1337.28365827 -179.40626526 1337.28010559 C-172.45788369 1337.27080862 -165.50964496 1337.24622694 -158.56132609 1337.21605712 C-150.64593148 1337.18243966 -142.73052979 1337.1660087 -134.81508148 1337.15097082 C-118.54330425 1337.11967505 -102.2716704 1337.06696067 -86 1337 C-86.24012817 1336.12081909 -86.24012817 1336.12081909 -86.48510742 1335.22387695 C-90.07588885 1319.71490207 -84.43995081 1304.5428383 -78.875 1290.3125 C-74.22136704 1279.4894681 -74.22136704 1279.4894681 -73 1268 C-76.38217338 1263.40874048 -80.63530334 1262.75172026 -85.9296875 1261.41796875 C-94.29615371 1257.55406642 -97.12715625 1248.97772912 -100.3125 1240.875 C-100.78324951 1239.69212402 -101.25399902 1238.50924805 -101.73901367 1237.29052734 C-112.38727931 1209.99952326 -120.49228662 1181.27836789 -123 1152 C-123.10957031 1150.78957031 -123.21914063 1149.57914063 -123.33203125 1148.33203125 C-126.29346663 1109.59645645 -120.58884953 1071.67665811 -113.72460938 1033.67297363 C-113.28679644 1031.24425801 -112.85297156 1028.81481975 -112.42333984 1026.38464355 C-111.80813216 1022.92034762 -111.17413494 1019.45998103 -110.53515625 1016 C-110.2647628 1014.45436371 -110.2647628 1014.45436371 -109.98890686 1012.87750244 C-108.75905903 1006.36250399 -106.79198656 1000.74143207 -103.91459656 994.76121521 C-102.18478916 989.53883551 -104.30286074 985.01733631 -106 980 C-106.6917938 977.39765041 -107.36378148 974.79572132 -108.015625 972.18359375 C-108.37944435 970.76286674 -108.74387982 969.34229738 -109.10888672 967.921875 C-117.86378626 933.59532177 -126.19477613 898.46094238 -126.25 862.875 C-126.25233643 862.18211884 -126.25467285 861.48923767 -126.25708008 860.77536011 C-126.27178973 849.11345159 -125.33220398 837.7732037 -123.65625 826.22265625 C-122.97890104 821.43270545 -122.88101632 816.83371192 -123 812 C-131.38001335 841.85888253 -129.89232487 870.82835986 -124.43188477 901.15527344 C-123.40101874 907.01454422 -122.63747104 912.67155348 -122.6875 918.625 C-122.69595947 919.71482178 -122.69595947 919.71482178 -122.70458984 920.82666016 C-123.12666618 939.56099898 -135.12226094 953.38172559 -148 965.8125 C-153.22204963 970.85387992 -157.15923913 975.94072484 -160.87670898 982.15356445 C-165.01856358 988.9444258 -170.55273506 993.26111134 -176.9375 997.8125 C-199.0337662 1014.19947454 -212.63573262 1043.28001133 -220.93231201 1068.6444397 C-230.23042325 1096.87731695 -243.7593948 1122.1761242 -263 1145 C-263.67409912 1145.80026611 -263.67409912 1145.80026611 -264.36181641 1146.61669922 C-266.18883145 1148.77943395 -268.0188869 1150.93931919 -269.86254883 1153.08789062 C-273.81167488 1157.7078097 -277.55051225 1162.47906529 -281.20898438 1167.33203125 C-283.83303751 1170.75088892 -286.52400223 1173.45218085 -290 1176 C-289.57983353 1169.86006208 -288.48650159 1164.65237734 -286.0625 1159 C-285.60170044 1157.90933228 -285.60170044 1157.90933228 -285.1315918 1156.79663086 C-274.59106187 1132.65910298 -257.61491709 1110.42694433 -241.40625 1089.8425293 C-229.97549353 1076.31959111 -229.97549353 1076.31959111 -227.0234375 1059.5234375 C-226.8258701 1029.82247217 -206.19724841 999.17308179 -186 979 C-183.33823207 976.4512349 -180.64088575 973.94200078 -177.9375 971.4375 C-162.53637626 957.16029568 -149.395683 942.60099843 -147 921 C-146.80583582 914.75704041 -146.99522161 908.52133478 -147.16601562 902.27929688 C-147.42420454 884.6423234 -144.07876907 867.83807039 -139.41455078 850.89361572 C-138.41168338 847.24710835 -137.4386609 843.59281259 -136.46328735 839.93887329 C-135.74556545 837.25183224 -135.02396705 834.565852 -134.30224609 831.87988281 C-129.89013385 815.4021978 -125.97083902 798.96580453 -124 782 C-123.90356201 781.25161865 -123.80712402 780.5032373 -123.70776367 779.73217773 C-122.59343296 769.80103542 -122.8920508 759.78988666 -122.9375 749.8125 C-122.94252475 747.88737096 -122.94708594 745.96224064 -122.95117188 744.03710938 C-122.96210085 739.35804116 -122.9793118 734.67903483 -123 730 C-115.37123934 739.73792699 -114.78467256 753.11082564 -116 765 C-116.71646736 769.93253663 -117.58636268 774.83362974 -118.57617188 779.71850586 C-119.86376091 786.22575634 -120.2313003 792.37099771 -120 799 C-109.959054 775.35000124 -112.63970186 753.14233566 -119.52368164 728.93212891 C-122.17380985 719.3482388 -124.78604267 708.98418573 -121.3125 699.3125 C-120.81169922 697.85263672 -120.81169922 697.85263672 -120.30078125 696.36328125 C-119.58265005 694.50649156 -118.83972985 692.65670336 -117.99755859 690.8527832 C-114.81810503 683.76264491 -114.30303778 677.26831775 -114 669.5625 C-113.38061508 658.03007014 -111.83730712 647.18394844 -109 636 C-108.34 636 -107.68 636 -107 636 C-106.93683594 637.07507813 -106.87367188 638.15015625 -106.80859375 639.2578125 C-105.78672551 653.4514407 -103.25796262 667.27943793 -100.56420898 681.23095703 C-97.67099191 696.24951699 -95.60626289 710.92801386 -95.6875 726.25 C-95.69023422 727.32933807 -95.69023422 727.32933807 -95.69302368 728.43048096 C-95.74151163 739.84110109 -96.37226159 750.86423417 -99 762 C-99.18224121 762.77408203 -99.36448242 763.54816406 -99.55224609 764.34570312 C-101.8386938 773.81239891 -104.56662405 783.16334432 -107.38818359 792.48291016 C-116.89194456 824.01422521 -101.79814666 856.78870022 -90.75 886 C-86.4104512 897.49686653 -82.8336771 909.04294194 -80 921 C-79.73445312 922.09699219 -79.46890625 923.19398438 -79.1953125 924.32421875 C-75.41556545 942.88640116 -77.17563261 962.37584175 -87.31640625 978.546875 C-88.82445494 980.74421741 -90.37598906 982.88730492 -92 985 C-88.02808912 981.91073599 -85.43144659 979.47898056 -83 975 C-82.67 975 -82.34 975 -82 975 C-82.4674251 982.68457516 -83.47606933 990.13813159 -84.86694336 997.70776367 C-90.57536953 1026.22173964 -90.57536953 1026.22173964 -83.4453125 1053.515625 C-80.30673041 1056.73903364 -76.0606783 1058.22922125 -72 1060 C-70.11991893 1060.92726825 -68.24465838 1061.86439199 -66.375 1062.8125 C-65.53710938 1063.23144531 -64.69921875 1063.65039062 -63.8359375 1064.08203125 C-63.23007812 1064.38496094 -62.62421875 1064.68789062 -62 1065 C-61.75019332 1070.77331004 -62.18761748 1076.00687818 -63.25 1081.6875 C-65.4837571 1095.80166641 -62.09116017 1111.84881581 -59.23710632 1125.70333862 C-57.02559975 1136.6159465 -56.57166716 1147.15804796 -56.58930969 1158.27417564 C-56.59387668 1161.41123829 -56.57954068 1164.54776252 -56.56091309 1167.68476868 C-56.52450277 1174.35233762 -56.5104953 1181.01984643 -56.5 1187.6875 C-56.48780575 1195.41206915 -56.46573123 1203.1363693 -56.41999817 1210.86081886 C-56.40670275 1213.90795459 -56.41054743 1216.95472499 -56.41540527 1220.00187683 C-56.3500067 1243.30462986 -55.0947845 1267.89985513 -39.85546875 1286.63671875 C-36.71409966 1290.63783096 -36.01697711 1294.41643013 -35.8125 1299.375 C-35.01903576 1307.5285291 -27.73924669 1312.30281353 -21.91015625 1317.30078125 C-15.58742441 1322.9252973 -11.82255188 1329.50400287 -8 1337 C-7.01 1337 -6.02 1337 -5 1337 C-5.33 1335.741875 -5.66 1334.48375 -6 1333.1875 C-8.09837977 1323.48629499 -7.34390036 1315.93990209 -3 1307 C2.06742749 1311.133954 3.12728564 1314.33563583 4 1321 C4 1326.61 4 1332.22 4 1338 C37.99 1338 71.98 1338 107 1338 C105.61099312 1332.84813403 105.61099312 1332.84813403 101.9375 1331.625 C96.05431351 1330.69116087 91.12328058 1331.36674088 85.4375 1333.0625 C79.91167534 1334.56954309 75.31714589 1334.84576875 70.0625 1332.5625 C49.71557598 1320.91319728 34.54587225 1289.64497726 27.98828125 1267.9453125 C18.96277144 1233.40901475 18.96277144 1233.40901475 25 1223 C25.3609375 1222.34902344 25.721875 1221.69804688 26.09375 1221.02734375 C27.03520911 1219.3360797 28.01413585 1217.66577046 29 1216 C31.50935136 1219.76402703 31.39401 1222.88977532 31.52734375 1227.26171875 C31.59823586 1228.9563832 31.66920198 1230.65104455 31.74023438 1232.34570312 C31.84002639 1234.9954119 31.9360153 1237.6452117 32.02905273 1240.29516602 C32.70159692 1258.76829527 33.5318263 1278.06862461 46.6875 1292.5 C67.3112929 1311.36107556 90.73264206 1323.49263309 118.75 1324.4375 C126.65438718 1324.74263017 134.25325229 1325.31663499 142 1327 C143.17683626 1330.67761331 143.03578346 1334.16669708 143 1338 C185.86615606 1339.13366088 185.86615606 1339.13366088 226.5546875 1327.54492188 C230.0735105 1325.96703696 233.62534273 1324.53957027 237.21875 1323.140625 C250.67400537 1317.87966639 263.91140867 1312.11274976 277 1306 C277.95551758 1305.55575684 278.91103516 1305.11151367 279.89550781 1304.65380859 C320.94900941 1285.49419329 359.71080046 1262.11305439 396 1235 C396.8672168 1234.35224609 396.8672168 1234.35224609 397.75195312 1233.69140625 C415.68311628 1220.22730479 432.89813536 1205.78542487 449.3269043 1190.52954102 C450.58095364 1189.38309141 451.84759415 1188.2503891 453.12036133 1187.12475586 C459.81064393 1181.19474802 466.17109925 1174.98283651 472.47827148 1168.65209961 C474.19207233 1166.9329133 475.91119082 1165.21917417 477.63085938 1163.50585938 C483.30283819 1157.83730975 488.79662136 1152.10674924 494 1146 C495.61967817 1144.22429779 497.24411718 1142.45291693 498.875 1140.6875 C503.32186477 1135.80663191 507.52428901 1130.77624476 511.66748047 1125.63720703 C513.18221604 1123.77611932 514.71671785 1121.93242794 516.25390625 1120.08984375 C517.1341748 1119.03144287 517.1341748 1119.03144287 518.03222656 1117.95166016 C519.16031514 1116.59615931 520.29087556 1115.24270864 521.42480469 1113.89208984 C522.56239401 1112.52088244 523.67312736 1111.12708178 524.76029265 1109.71556103 C526.44150339 1107.67715616 528.0593859 1105.96523645 529.95356977 1104.15580642 C541.85730477 1091.89098205 540.71873554 1077.15105132 540.55401337 1061.13412129 C540.52517737 1057.03012915 540.56635031 1052.92670715 540.59826505 1048.82281959 C540.64453983 1041.64151182 540.64650716 1034.4612688 540.61888123 1027.27988052 C540.57791165 1016.6008559 540.60572841 1005.92276777 540.64671355 995.24378288 C540.71756994 976.16811302 540.71961923 957.09290233 540.69184967 938.01714829 C540.66762575 921.3223392 540.66491232 904.62770474 540.68366623 887.93288803 C540.6848731 886.82474999 540.68607997 885.71661196 540.68732341 884.57489398 C540.69222316 880.0763855 540.69718635 875.57787711 540.70226801 871.07936883 C540.74938427 828.8922369 540.72493092 786.70540555 540.66957699 744.51829838 C540.62090265 707.0554404 540.6401568 669.59318032 540.71533203 632.13037109 C540.79963618 590.02259201 540.83802762 547.91516016 540.80528295 505.80729759 C540.80192662 501.3164463 540.79870079 496.82559493 540.79554367 492.3347435 C540.79432255 490.6761499 540.79432255 490.6761499 540.79307675 488.98404936 C540.78165518 472.30299364 540.80555608 455.6222278 540.84700394 438.94122696 C540.89400832 419.96810328 540.8913349 400.99571579 540.82317765 382.02264108 C540.78647266 371.41007327 540.78808362 360.79916914 540.84552407 350.18668412 C540.88002997 343.09014286 540.86327195 335.99489314 540.80553539 328.89850655 C540.77408244 324.8594685 540.76405131 320.82370062 540.81650992 316.78480639 C541.01791118 300.12654337 540.7162403 286.9271641 528.40940893 274.3135823 C527.52487938 273.46202243 527.52487938 273.46202243 526.62248056 272.59325932 C524.45300261 270.46285416 522.63743634 268.11453084 520.8125 265.6875 C517.33322589 261.3607104 513.74720736 257.1270254 510.14697266 252.90087891 C506.40881246 248.50785853 502.76894528 244.04160076 499.16796875 239.53515625 C498.45253906 238.69855469 497.73710938 237.86195313 497 237 C496.59127503 236.49374091 496.18255007 235.98748182 495.76143949 235.46588155 C492.94949805 232.27118942 491.52860456 231.10426229 487.22191918 230.25480902 C485.77311862 230.22655803 484.32344683 230.23098295 482.87469673 230.26171303 C481.666411 230.25132843 481.666411 230.25132843 480.43371546 230.24073404 C477.72891692 230.2248257 475.02625282 230.25178451 472.32156372 230.2784729 C470.36534971 230.27585679 468.40913774 230.27060393 466.45293701 230.2629379 C461.07328004 230.24950358 455.69433799 230.2735459 450.31477213 230.30360627 C444.51523247 230.32948361 438.71573409 230.32075117 432.91615295 230.31619263 C422.86665395 230.31304439 412.81738843 230.33189149 402.76794815 230.36561966 C388.23813277 230.41435327 373.70842535 230.43002547 359.17853759 230.43754761 C335.60561533 230.45015012 312.03281469 230.49057431 288.45996094 230.54736328 C265.55925137 230.60246933 242.65857509 230.64497125 219.7578125 230.67041016 C219.05191321 230.67119931 218.34601392 230.67198847 217.61872374 230.67280154 C210.52979355 230.68071266 203.44086309 230.68836754 196.35193241 230.6958347 C181.91096057 230.71105198 167.4699909 230.72797949 153.02902222 230.74594116 C152.03306344 230.74717677 152.03306344 230.74717677 151.01698427 230.74843734 C106.67793874 230.80364144 62.33896147 230.89883745 18 231 C18.8038916 231.53036865 19.6077832 232.0607373 20.43603516 232.60717773 C21.50128418 233.31302002 22.5665332 234.0188623 23.6640625 234.74609375 C24.7154541 235.4414624 25.7668457 236.13683105 26.85009766 236.85327148 C44.90226668 249.15622624 44.90226668 249.15622624 47.3125 258.625 C48.43123753 262.51741223 49.71762552 263.89734683 53.25 265.875 C55.48547598 266.94540707 57.72832168 267.89486778 60.0390625 268.7890625 C64.39958687 270.47760598 66.05364908 271.73656466 68 276 C68.2578125 279.59375 68.2578125 279.59375 68.125 283.5 C67.99417709 287.86076352 67.93869901 291.75479602 69 296 C67.24312628 294.94890486 65.49476874 293.88356877 63.75 292.8125 C62.77546875 292.22082031 61.8009375 291.62914062 60.796875 291.01953125 C55.98453648 287.54470022 53.6713924 283.6053233 51.3125 278.25 C49.23196507 273.94256086 47.22767334 270.95712568 43.6875 267.75 C39.45954775 263.87733786 37.02171976 259.8158803 34.375 254.8125 C28.31949983 243.557378 22.26836025 240.02530513 10 236 C7.27541122 235.22846849 4.80898194 234.86216456 1.98046875 234.7890625 C1.21331543 234.76255615 0.44616211 234.7360498 -0.34423828 234.70874023 C-1.15876465 234.68110596 -1.97329102 234.65347168 -2.8125 234.625 C-8.93249835 234.37440915 -14.65251994 233.80392133 -20.625 232.4375 C-32.79904355 229.61597098 -32.79904355 229.61597098 -45 231 C-48.42075639 233.58862321 -50.5518962 237.15747864 -52.83203125 240.73046875 C-57.76136846 248.16444216 -65.48323319 250.85959755 -73.59643555 253.82202148 C-78.50802992 255.6400039 -83.27449262 257.622109 -86.42578125 261.96484375 C-86.71839844 262.61582031 -87.01101563 263.26679688 -87.3125 263.9375 C-87.61800781 264.58589844 -87.92351563 265.23429687 -88.23828125 265.90234375 C-89.98656994 270.71686183 -90.15672403 275.46475606 -90.2109375 280.5390625 C-90.23902879 282.02214602 -90.26769338 283.50521878 -90.296875 284.98828125 C-90.33787319 287.29833401 -90.37480675 289.60819078 -90.40136719 291.91845703 C-90.64088758 311.14203325 -90.64088758 311.14203325 -94 318 C-97.43202159 319.1440072 -98.63743096 319.26668637 -102 318 C-103.67208779 315.80264903 -104.98730816 313.82385114 -106.3125 311.4375 C-106.67150391 310.82197266 -107.03050781 310.20644531 -107.40039062 309.57226562 C-108.28158783 308.05660643 -109.14279477 306.52935624 -110 305 C-114.7765855 305.48575446 -118.56340198 306.08861101 -123 308 C-123.64258733 300.23183318 -123.12053027 295.05031076 -118 289 C-117.03320312 288.08347656 -117.03320312 288.08347656 -116.046875 287.1484375 C-113.66555836 284.64896393 -112.17338836 282.0784022 -110.5 279.0625 C-106.94279158 272.66760941 -104.00711549 268.2895848 -97.5 264.75 C-92.70619568 261.83036918 -90.5451395 259.52177871 -88.78125 254.2109375 C-86.70346727 248.33081236 -83.74628186 245.90175645 -78.3125 243.125 C-72.10560972 239.78480049 -66.9976732 235.9976732 -62 231 C-144.83 230.67 -227.66 230.34 -313 230 C-313 226.04 -313 222.08 -313 218 C-51.97 217.67 209.06 217.34 478 217 C461.84835546 200.62764757 461.84835546 200.62764757 445 185 C443.22429779 183.38032183 441.45291693 181.75588282 439.6875 180.125 C435.25368689 176.08597847 430.71945416 172.22493122 426.05078125 168.4609375 C423.82711326 166.66719764 421.61801522 164.86127617 419.41796875 163.0390625 C409.22833249 154.62783054 398.71773685 146.72429332 388 139 C386.89906006 138.20480957 386.89906006 138.20480957 385.77587891 137.39355469 C375.39934116 129.9198235 364.84042494 122.78341629 354 116 C353.00097656 115.37464355 352.00195312 114.74928711 350.97265625 114.10498047 C293.98485581 78.60618861 232.78654817 51.62596547 168 34 C167.33716003 33.81908813 166.67432007 33.63817627 165.99139404 33.45178223 C111.51443297 18.63624321 56.2419248 12.73450146 0 10 C0 6.7 0 3.4 0 0 Z M506 230 C508.68794919 234.03192378 510.84411672 237.08309962 514.0625 240.5 C517.73741867 244.51284223 521.16244994 248.64578061 524.5 252.9375 C524.95882568 253.52740723 525.41765137 254.11731445 525.89038086 254.72509766 C526.808112 255.90543112 527.72583667 257.08576961 528.64355469 258.26611328 C530.77623328 260.9922262 532.94508168 263.68643408 535.125 266.375 C536.21167969 267.71691406 536.21167969 267.71691406 537.3203125 269.0859375 C537.87460938 269.71757812 538.42890625 270.34921875 539 271 C539.33 271 539.66 271 540 271 C540 257.47 540 243.94 540 230 C528.78 230 517.56 230 506 230 Z M553 309 C553 560.46 553 811.92 553 1071 C567.63235399 1052.70955751 578.90683071 1031.56119773 590 1011 C590.45697266 1010.15453613 590.91394531 1009.30907227 591.38476562 1008.43798828 C605.02948727 983.06416051 616.76877077 956.91752301 627 930 C627.46116211 928.79102051 627.92232422 927.58204102 628.39746094 926.33642578 C647.5707155 875.5456716 659.96625622 822.08215731 666.25 768.1875 C666.40114258 766.90480225 666.55228516 765.62210449 666.70800781 764.30053711 C669.39606323 739.78795956 670.38287903 715.27347166 670.3125 690.625 C670.31057196 689.27026379 670.3087319 687.91552746 670.30697632 686.56079102 C670.26448297 663.93571141 669.48204133 641.49750016 667 619 C666.91514343 618.22062073 666.83028687 617.44124146 666.74285889 616.63824463 C657.69771859 534.27853552 633.69411593 455.67616886 559.6875 317.5625 C559.1298999 316.69705566 558.5722998 315.83161133 557.99780273 314.93994141 C557.23125366 313.7650415 557.23125366 313.7650415 556.44921875 312.56640625 C555.99893311 311.87490479 555.54864746 311.18340332 555.0847168 310.47094727 C554.72676025 309.98553467 554.36880371 309.50012207 554 309 C553.67 309 553.34 309 553 309 Z M-567 1099 C-567 1177.87 -567 1256.74 -567 1338 C-462.72 1338 -358.44 1338 -251 1338 C-253.36915093 1335.63084907 -255.27179928 1334.99598479 -258.40625 1333.8203125 C-259.52990967 1333.39210205 -260.65356934 1332.9638916 -261.8112793 1332.52270508 C-263.63719604 1331.83084106 -263.63719604 1331.83084106 -265.5 1331.125 C-278.66229377 1326.06992698 -291.4522056 1320.37565502 -304.19091797 1314.32666016 C-306.66170944 1313.15976629 -309.14076261 1312.01599129 -311.62890625 1310.88671875 C-323.40862814 1305.51661184 -334.70383077 1299.31396407 -346 1293 C-346.88236328 1292.50983398 -347.76472656 1292.01966797 -348.67382812 1291.51464844 C-381.20386953 1273.40876165 -411.98790048 1252.31726924 -441 1229 C-441.928125 1228.25492188 -442.85625 1227.50984375 -443.8125 1226.7421875 C-454.52985881 1218.04991102 -464.97843578 1209.06182842 -475.0859375 1199.66796875 C-476.57261583 1198.306841 -478.06213174 1196.9473847 -479.6003418 1195.64477539 C-486.44230797 1189.84022592 -492.70663718 1183.44371367 -499.03637695 1177.09399414 C-501.05764268 1175.0673702 -503.08419574 1173.04614453 -505.11132812 1171.02539062 C-511.28679275 1164.85311069 -517.37272692 1158.68350455 -523 1152 C-524.45445517 1150.39231627 -525.91220895 1148.78760285 -527.375 1147.1875 C-531.19475279 1142.9504633 -534.84042897 1138.60429469 -538.42578125 1134.16796875 C-540.35938018 1131.77667667 -542.32087482 1129.41042177 -544.29296875 1127.05078125 C-550.69938478 1119.36802496 -556.91165739 1111.62354664 -562.71240234 1103.46972656 C-563.78745704 1101.96473227 -564.89062844 1100.47988012 -566 1099 C-566.33 1099 -566.66 1099 -567 1099 Z M539 1109 C537.4413465 1110.76829695 535.93157524 1112.55318503 534.4375 1114.375 C533.9842334 1114.9230127 533.5309668 1115.47102539 533.06396484 1116.03564453 C530.38182432 1119.2876102 527.74152486 1122.56991597 525.125 1125.875 C517.36480568 1135.6181816 509.14580337 1144.96405033 500.66796875 1154.0859375 C498.67003994 1156.26815549 496.72603454 1158.47065518 494.79589844 1160.71118164 C491.21274713 1164.81101601 487.45285509 1168.692175 483.59765625 1172.53515625 C482.91626083 1173.21750839 482.23486542 1173.89986053 481.53282166 1174.60289001 C480.10294259 1176.03344437 478.67182089 1177.46275767 477.23950195 1178.89086914 C475.06802289 1181.05699074 472.90193675 1183.22840174 470.73632812 1185.40039062 C469.33625798 1186.79979987 467.93587762 1188.19889884 466.53515625 1189.59765625 C465.89844498 1190.23639175 465.2617337 1190.87512726 464.60572815 1191.53321838 C460.77480648 1195.34458322 456.82994005 1198.9717648 452.73724365 1202.50086975 C450.5159046 1204.41774339 448.35293869 1206.39538705 446.1875 1208.375 C440.93862774 1213.10615345 435.49437924 1217.55876785 430 1222 C428.76879913 1223.01082767 427.53837382 1224.02260049 426.30859375 1225.03515625 C367.94092793 1272.98648315 301.53656308 1310.27018061 231 1337 C231 1337.33 231 1337.66 231 1338 C332.97 1338 434.94 1338 540 1338 C540 1262.43 540 1186.86 540 1109 C539.67 1109 539.34 1109 539 1109 Z M-168 1351 C-164.02609805 1352.98695097 -160.39092078 1353.90827833 -156.08984375 1354.76953125 C-155.3030423 1354.9308252 -154.51624084 1355.09211914 -153.70559692 1355.25830078 C-151.11781835 1355.78464362 -148.52805297 1356.2999947 -145.9375 1356.8125 C-145.04586151 1356.98985687 -144.15422302 1357.16721375 -143.23556519 1357.34994507 C-114.35744092 1363.06488034 -85.36204599 1366.88150511 -56 1369 C-55.34211487 1369.04805786 -54.68422974 1369.09611572 -54.00640869 1369.14562988 C-39.84905115 1370.14824319 -25.68810075 1370.24292502 -11.5 1370.25 C-10.2741217 1370.25067474 -9.04824341 1370.25134949 -7.78521729 1370.25204468 C44.82379935 1370.20641932 96.78953052 1364.09136085 148 1352 C148 1351.67 148 1351.34 148 1351 C43.72 1351 -60.56 1351 -168 1351 Z " fill="#FD0000" transform="translate(700,0)"/>
<path d="M0 0 C2.14637987 2.14637987 2.44469051 3.01990371 3.19140625 5.8671875 C3.51794189 7.0571936 3.51794189 7.0571936 3.85107422 8.27124023 C4.08584473 9.13048096 4.32061523 9.98972168 4.5625 10.875 C10.6493083 32.04442004 20.88384301 56.41288225 39 70 C35.04022024 61.54276177 30.44193239 53.91337794 25.125 46.25 C16.24976227 33.16377967 7.81235006 19.8333094 5 4 C5.33 3.01 5.66 2.02 6 1 C11.58543298 7.6265797 15.95449249 14.77039254 20.22161865 22.2739563 C29.12392281 37.88972248 38.48704869 52.02360605 51 65 C51.71542969 65.77859375 52.43085937 66.5571875 53.16796875 67.359375 C62.35915488 77.08513293 73.83248248 84.38166104 84.98876953 91.65209961 C90.12546931 95.01016569 94.71735852 98.07336431 98.125 103.25 C98.60195313 103.95640625 99.07890625 104.6628125 99.5703125 105.390625 C103.28728929 112.17461543 104.51597317 118.45465754 105.0625 126.125 C105.22051709 127.99106779 105.38067733 129.85695533 105.54296875 131.72265625 C105.61950684 132.62516113 105.69604492 133.52766602 105.77490234 134.45751953 C107.60647646 155.14516902 114.53787292 173.58703782 130 188 C134.38526151 191.44244896 139.19013339 194.201843 144 197 C147.06095747 198.91997182 150.05517742 200.9064152 153 203 C153.639375 203.44859375 154.27875 203.8971875 154.9375 204.359375 C193.61535028 234.6154353 219.73552374 318.06199411 225.73046875 364.95703125 C226.11655836 369.31592697 226.18127018 373.62937463 226 378 C222.61604044 375.3008894 221.46554111 371.67731336 220 367.75 C219.70585205 366.98059082 219.4117041 366.21118164 219.10864258 365.41845703 C216.660411 358.9398498 214.37598656 352.40456684 212.0871582 345.8684082 C204.91090492 325.38347846 197.23448807 305.18435189 187 286 C186.61344238 285.26555664 186.22688477 284.53111328 185.82861328 283.77441406 C173.50589016 259.72024923 173.50589016 259.72024923 152 245 C148.50225315 244.18229201 145.28788882 243.88135738 141.69921875 243.90234375 C140.72275391 243.90556641 139.74628906 243.90878906 138.74023438 243.91210938 C137.73283203 243.92048828 136.72542969 243.92886719 135.6875 243.9375 C134.66076172 243.94201172 133.63402344 243.94652344 132.57617188 243.95117188 C130.05072118 243.96291816 127.52539095 243.97934435 125 244 C120.78481088 232.59324775 119.2624818 221.77460704 118.80908203 209.61987305 C118.38887454 200.67966422 116.7189864 192.62520719 110.875 185.5625 C110.27558594 184.82773438 109.67617188 184.09296875 109.05859375 183.3359375 C107.58534511 181.66420565 106.07255735 180.02699361 104.53515625 178.4140625 C93.26461997 166.58423645 89.68191393 154.18082387 85.70263672 138.71826172 C80.37868195 117.16898818 80.37868195 117.16898818 67 100 C67.0928125 101.794375 67.0928125 101.794375 67.1875 103.625 C67.03026154 116.34166022 62.82973217 125.9214043 57.0637207 137.00634766 C51.76155229 147.22365194 47.76581407 157.03401223 48.0078125 168.71484375 C48.03669556 170.68626343 48.03669556 170.68626343 48.06616211 172.69750977 C48.07662567 173.38886017 48.08708923 174.08021057 48.09786987 174.79251099 C48.36440447 195.86553395 45.43148914 215.33158003 40.51342773 235.77954102 C36.36917493 253.18540278 34.90171444 270.57727264 34.7890625 288.4375 C34.76098116 290.98828753 34.73231662 293.53906869 34.703125 296.08984375 C34.66211617 300.03401414 34.62514744 303.97806737 34.59863281 307.92236328 C34.28893484 350.50583445 24.84407866 388.08924179 3 425 C2.34 425 1.68 425 1 425 C2.05613753 417.09044826 3.27528483 409.22558239 4.65625 401.3671875 C4.80505615 400.51699036 4.9538623 399.66679321 5.10717773 398.79083252 C5.72302526 395.27868455 6.3404873 391.76687395 6.96826172 388.25683594 C10.20477311 370.11471227 12.41053202 352.13817297 12.3125 333.6875 C12.31100952 332.97542389 12.30951904 332.26334778 12.3079834 331.5296936 C12.18331194 297.8102507 7.78590623 266.04102831 -6.4375 235.3125 C-19.43210449 207.13112875 -24.12523132 181.30296449 -20.5 150.625 C-17.82974288 127.20135906 -18.58637692 105.53291308 -22.95288086 82.44384766 C-25.58001499 68.20220826 -25.62978255 55.15414612 -20.578125 41.34375 C-20.32740234 40.6528125 -20.07667969 39.961875 -19.81835938 39.25 C-19.41327148 38.13625 -19.41327148 38.13625 -19 37 C-18.56010742 35.74316406 -18.56010742 35.74316406 -18.11132812 34.4609375 C-8.8865593 8.1482913 -8.8865593 8.1482913 0 0 Z " fill="#FD0000" transform="translate(695,840)"/>
<path d="M0 0 C0.66 0.33 1.32 0.66 2 1 C-1.59214408 9.73057534 -5.48170176 18.14826798 -10.125 26.375 C-10.55538574 27.1378833 -10.98577148 27.9007666 -11.42919922 28.68676758 C-12.25320488 30.14395152 -13.0778771 31.60075881 -13.90332031 33.05712891 C-15.30528789 35.54084619 -16.67614729 38.03621303 -18 40.5625 C-18.350625 41.22378906 -18.70125 41.88507812 -19.0625 42.56640625 C-21.93608213 50.02574653 -22.28127983 57.41607162 -22.2734375 65.33203125 C-22.29375056 67.53581215 -22.31460175 69.73958814 -22.3359375 71.94335938 C-22.35834003 75.36096347 -22.3749409 78.77837123 -22.38085938 82.19604492 C-22.50265353 124.05974009 -37.81382467 154.66572553 -61.21142578 188.41845703 C-83.13085489 220.0559186 -102.75361837 252.59129308 -120 287 C-120.51046875 288.01690918 -121.0209375 289.03381836 -121.546875 290.08154297 C-129.18014762 305.39169224 -135.79393078 321.06196125 -142 337 C-142.37785645 337.96824707 -142.75571289 338.93649414 -143.14501953 339.93408203 C-152.74952248 364.78741976 -161.63258053 391.97553744 -162.18896484 418.85058594 C-162.41894122 427.89141725 -163.77553812 434.87503804 -168 443 C-171.21132427 450.03619423 -172.12570623 456.09960711 -172.4375 463.75 C-173.30851064 481.17021277 -173.30851064 481.17021277 -179 488 C-184.52693666 492.33192333 -190.07481304 492.2708655 -196.75 491.5 C-210.83884057 489.07367843 -223.91946971 482.85846054 -236.50195312 476.29589844 C-241.87523128 473.50843162 -247.28006362 470.78295837 -252.6875 468.0625 C-253.29241272 467.75768707 -253.89732544 467.45287415 -254.52056885 467.13882446 C-262.34618274 463.2043717 -270.22659249 459.49613207 -278.3125 456.125 C-294.73642732 449.26084911 -309.9933452 441.57016706 -321 427 C-322.00496852 423.98509443 -322.10335303 421.95818308 -322.0625 418.8125 C-322.05347656 417.91144531 -322.04445313 417.01039063 -322.03515625 416.08203125 C-322.02355469 415.39496094 -322.01195312 414.70789062 -322 414 C-320.87189027 413.28378864 -319.72088766 412.60362935 -318.5625 411.9375 C-317.92441406 411.55464844 -317.28632813 411.17179687 -316.62890625 410.77734375 C-308.45394906 408.36008301 -300.16430391 412.56323889 -292.6451416 415.49169922 C-270.40093114 424.10808853 -244.11964081 433.12383521 -220 429 C-211.93005937 424.88591262 -207.28270332 417.32264333 -203.125 409.5625 C-202.69574219 408.77101563 -202.26648438 407.97953125 -201.82421875 407.1640625 C-200.53942 404.7812755 -199.26943808 402.39099526 -198 400 C-197.64647461 399.3488623 -197.29294922 398.69772461 -196.92871094 398.02685547 C-188.10914537 381.75419662 -181.99040323 364.29253118 -176.30859375 346.7265625 C-175.98493332 345.72623993 -175.66127289 344.72591736 -175.32780457 343.69528198 C-173.70881727 338.67632382 -172.107256 333.65253501 -170.52905273 328.62060547 C-163.5325635 306.51019866 -155.22803638 286.93021103 -139 270 C-112.53332408 241.77076411 -89.93551244 210.74939673 -70.0625 177.5625 C-69.51859619 176.66313721 -68.97469238 175.76377441 -68.41430664 174.8371582 C-62.2990818 164.5097947 -59.4093841 155.17024926 -57.625 143.3125 C-49.55697585 93.82300926 -30.78820904 39.99546345 0 0 Z " fill="#FD0000" transform="translate(563,759)"/>
<path d="M0 0 C0.88620529 0.1721553 1.77241058 0.34431061 2.68547058 0.52168274 C4.34855327 0.84525044 6.01119826 1.17108008 7.67329407 1.49967957 C44.91000705 8.74289583 85.16842269 2.12429873 122.06771851 -4.2069397 C136.59844388 -6.69773918 150.79328994 -8.66418219 165.5690918 -8.58203125 C166.29031219 -8.57954376 167.01153259 -8.57705627 167.75460815 -8.57449341 C200.73509677 -8.399213 230.34475773 3.17770104 260.7800293 14.81640625 C278.35974483 21.50366847 295.65049094 25.44565491 314.3190918 27.73046875 C308.85875181 34.55559652 302.94728161 38.50641191 295.3190918 42.73046875 C294.48071777 43.19678711 293.64234375 43.66310547 292.77856445 44.14355469 C266.33345848 58.71486907 232.84165022 73.70690801 202.0065918 65.16796875 C189.24595309 60.35985325 183.99063123 51.57709529 178.3894043 39.64453125 C174.0445502 30.44678972 170.25960908 23.33603956 160.6315918 18.85546875 C141.0273709 12.19743146 115.29863907 17.26726431 95.22160339 19.39324188 C89.67348168 19.97398356 84.12111627 20.51392792 78.56945801 21.0596199 C77.2045492 21.19384827 75.8396806 21.32848618 74.47485352 21.46354294 C-34.91604355 32.28198336 -34.91604355 32.28198336 -67.6809082 6.73046875 C-75.80008147 -0.99647393 -75.80008147 -0.99647393 -76.6809082 -6.26953125 C-58.68246909 -18.26849066 -19.54983106 -3.81371248 0 0 Z " fill="#FE0000" transform="translate(633.680908203125,420.26953125)"/>
<path d="M0 0 C0.98718018 0.36738281 1.97436035 0.73476563 2.99145508 1.11328125 C21.17800131 8.1234695 30.92619491 19.13365343 42.25 34.5 C49.61172377 44.44938449 57.03381015 54.23439026 65.25 63.5 C65.91257812 64.24765625 66.57515625 64.9953125 67.2578125 65.765625 C79.89694405 79.19800749 98.00748794 88.90478658 116.5078125 89.81640625 C132.64192629 90.3037795 142.66888384 86.82643867 156.16015625 78.328125 C159.25 76.5 159.25 76.5 161.25 76.5 C158.53566825 87.08589382 151.00850736 95.28574002 141.89453125 100.96875 C125.19995818 109.45839336 104.49056854 109.79626455 86.25 111.5 C85.9413501 112.43263672 85.6327002 113.36527344 85.31469727 114.32617188 C84.02744258 118.16343647 82.59236611 121.93665354 81.15234375 125.71875 C79.38297471 131.17238965 79.12950851 136.37712692 79.15234375 142.0859375 C79.1537587 142.78772125 79.15517365 143.489505 79.15663147 144.21255493 C79.1621871 146.43341504 79.17473108 148.65417084 79.1875 150.875 C79.19252074 152.38932145 79.19708264 153.9036445 79.20117188 155.41796875 C79.21214193 159.11201252 79.22937551 162.80599606 79.25 166.5 C74.5521176 164.1510588 72.76227864 154.18132492 71.1328125 149.3203125 C66.21079074 133.5959775 63.65721613 117.36403864 62.875 100.9375 C61.8646983 84.68705401 56.42422168 69.65245665 44.25 58.5 C33.83102329 50.45697237 23.333783 49.06387766 10.51953125 50.15625 C-28.48789337 53.47066521 -64.04456796 32.69666663 -96.75 13.5 C-95.35267589 9.30802768 -92.48490421 8.47606304 -88.75 6.59375 C-88.04029053 6.2277771 -87.33058105 5.8618042 -86.59936523 5.48474121 C-85.09192998 4.71021315 -83.58199971 3.940525 -82.06982422 3.17529297 C-79.7809944 2.0157027 -77.50143753 0.83934769 -75.22265625 -0.33984375 C-73.75312999 -1.09217381 -72.28309267 -1.8435066 -70.8125 -2.59375 C-69.80413086 -3.11418884 -69.80413086 -3.11418884 -68.77539062 -3.6451416 C-45.88078602 -15.16405975 -22.85902613 -8.51226087 0 0 Z " fill="#FD0000" transform="translate(513.75,435.5)"/>
<path d="M0 0 C0.53625 0.17015625 1.0725 0.3403125 1.625 0.515625 C4.40788627 1.37612273 7.20136382 2.19211111 10 3 C11.15113281 3.33644531 12.30226563 3.67289062 13.48828125 4.01953125 C40.04260484 11.2616195 63.90717864 7.90543178 90.359375 2.33984375 C118.76952514 -3.52753403 143.90727599 2.39560176 170.25 13.375 C171.86539673 14.04402344 171.86539673 14.04402344 173.51342773 14.7265625 C201.95838517 26.84914367 201.95838517 26.84914367 207.3125 39.5625 C207.91515234 41.3620479 208.4725435 43.17699365 209 45 C214.09116993 62.15847581 220.99337181 74.62862942 233.46484375 87.5546875 C241.7117202 96.15399456 247.16072882 106.14691906 249 118 C245.15290108 116.71763369 243.88906696 114.41107305 241.625 111.25 C232.44349517 98.95972962 221.54542137 89.32402643 209.0703125 80.47167969 C206.97162972 78.97983301 204.89224581 77.46341054 202.8125 75.9453125 C192.05692198 68.20311802 182.17791994 63.30593024 168.73046875 62.5703125 C139.01751071 60.82249144 115.29084101 54.50735263 89.125 40.375 C83.36773165 37.44091053 77.16270708 35.64357226 71.02978516 33.66455078 C65.58333834 31.89852619 60.27507576 29.97358708 55 27.75 C50.57379974 25.90774368 46.52900278 24.63146183 41.8125 23.8125 C31.99164464 21.77101838 23.54746149 16.02582605 15 11 C13.46146116 10.11497445 11.92242341 9.23081548 10.3828125 8.34765625 C9.00416695 7.54605921 7.62650067 6.74277466 6.25 5.9375 C5.6120752 5.56802246 4.97415039 5.19854492 4.31689453 4.81787109 C2.84235974 3.93546906 1.4147786 2.97533979 0 2 C0 1.34 0 0.68 0 0 Z " fill="#FD0000" transform="translate(321,353)"/>
<path d="M0 0 C5.44682326 2.00141457 9.74581802 3.10935671 15.56298828 2.49023438 C17.26979775 0.86470154 18.93959023 -0.80092557 20.56298828 -2.50976562 C25.96546435 -3.56677181 29.14897361 -1.33473502 33.56298828 1.49023438 C31.70584542 10.06166295 31.70584542 10.06166295 28.56298828 13.49023438 C29.76955078 14.07804687 29.76955078 14.07804687 31.00048828 14.67773438 C33.56298828 16.49023438 33.56298828 16.49023438 34.34423828 18.80273438 C34.80296619 24.4385344 31.21733229 29.0635585 28.14892578 33.56445312 C23.06321943 39.50581149 16.2046346 42.39534474 9.28051758 45.69360352 C3.86093425 48.28418734 -1.20362076 51.07596302 -6.18701172 54.42773438 C-12.77403303 58.80907457 -19.14009945 62.48683527 -27.32373047 62.23242188 C-31.17745167 60.87898929 -32.51270575 57.64230117 -34.28076172 54.15039062 C-37.1263337 47.60365238 -37.58910457 43.40279146 -36.43701172 36.49023438 C-36.43701172 35.50023437 -36.43701172 34.51023437 -36.43701172 33.49023438 C-43.58746149 36.64601947 -49.69497883 40.25610813 -55.87451172 44.99023438 C-73.11578107 58.06292254 -91.23509571 60.02987618 -112.14038086 61.56884766 C-142.69444676 63.86223243 -172.51827315 72.07683021 -197.43701172 90.49023438 C-198.39994141 91.1734375 -199.36287109 91.85664063 -200.35498047 92.56054688 C-204.7135211 96.24438429 -207.27719751 101.31123558 -210.12451172 106.17773438 C-211.24756773 108.08093826 -212.37622907 109.9808488 -213.51123047 111.87695312 C-214.00196045 112.71444092 -214.49269043 113.55192871 -214.99829102 114.41479492 C-216.43701172 116.49023438 -216.43701172 116.49023438 -219.43701172 118.49023438 C-221.72391406 108.86397101 -220.06034434 99.83866077 -215.28076172 91.27148438 C-199.10325069 66.86812029 -162.39539923 61.37121587 -135.99169922 55.29492188 C-99.00590042 46.78266462 -66.9190069 35.18528612 -39.59326172 7.62695312 C-38.9177124 6.94592529 -38.24216309 6.26489746 -37.54614258 5.56323242 C-36.1997834 4.19952781 -34.85926045 2.83003216 -33.52514648 1.4543457 C-32.90953857 0.82681396 -32.29393066 0.19928223 -31.65966797 -0.44726562 C-31.11060791 -1.01316406 -30.56154785 -1.5790625 -29.99584961 -2.16210938 C-21.96437265 -9.1055319 -8.45038638 -3.17561312 0 0 Z " fill="#FD0000" transform="translate(1149.43701171875,260.509765625)"/>
<path d="M0 0 C3.12761531 3.12761531 4.17584708 7.17775845 5.78125 11.25 C6.83650896 14.07648457 6.83650896 14.07648457 9 16 C13.80183837 15.80044042 13.80183837 15.80044042 17.8125 13.4375 C18.204375 12.963125 18.59625 12.48875 19 12 C19.66 12 20.32 12 21 12 C19.15923371 43.51842682 6.26133583 71.4245399 -6.984375 99.57421875 C-8.94134424 103.73932239 -10.89814942 107.90434022 -12.828125 112.08203125 C-13.22418945 112.93643799 -13.62025391 113.79084473 -14.02832031 114.67114258 C-17.53984865 123.08734078 -16.77120303 133.0037306 -14.47705078 141.66088867 C-12.82650713 149.75395865 -14.22375974 158.03977125 -15.9375 166 C-16.15567383 167.02037354 -16.37384766 168.04074707 -16.59863281 169.09204102 C-27.14519697 215.9589565 -27.14519697 215.9589565 -43 230 C-45.1862793 230.69433594 -45.1862793 230.69433594 -47 231 C-45.64858968 228.12369685 -44.293533 225.24912649 -42.9375 222.375 C-42.52991455 221.5092334 -42.1223291 220.6434668 -41.70239258 219.75146484 C-39.84899253 215.83168854 -37.98642449 211.92448675 -35.984375 208.078125 C-25.09912231 187.15950895 -22.01876241 164.7555205 -28.62890625 142.01953125 C-30.46990374 136.4056954 -32.70991083 130.93195722 -35.00610352 125.4909668 C-36.04561043 123.00825352 -37.03442525 120.51240086 -38 118 C-38.37133057 117.04303223 -38.74266113 116.08606445 -39.12524414 115.10009766 C-42.60853953 105.16088816 -42.51765923 95.75719796 -42.4152832 85.37109375 C-42.31217604 69.82050574 -46.15585474 57.73852292 -53.40039062 43.92578125 C-55.61021201 39.50613848 -56.86050326 36.05158751 -56 31 C-51.93819196 26.84169112 -45.42522921 27.16315038 -39.9375 26.625 C-29.99585163 25.48548034 -21.37335643 24.15213906 -13.25 17.875 C-9.70237954 13.34192941 -6.3393008 8.68759589 -3 4 C-2.00464806 2.66319325 -1.00648966 1.32844132 0 0 Z " fill="#FD0000" transform="translate(775,492)"/>
<path d="M0 0 C0.33 0.33 0.66 0.66 1 1 C0.99232619 2.43369147 0.91546342 3.8671516 0.80859375 5.296875 C0.75123047 6.1734375 0.69386719 7.05 0.63476562 7.953125 C0.50433199 9.80244154 0.36899723 11.6514196 0.22851562 13.5 C-0.2903717 20.01806066 -0.2903717 20.01806066 2 26 C5.03825032 28.96263775 8.33946848 29.9220237 12.375 31.0625 C14.02628906 31.54396484 14.02628906 31.54396484 15.7109375 32.03515625 C26.69494304 34.70272116 37.49630602 35.26920666 48.72804451 35.11976433 C51.10831401 35.08889498 53.48832769 35.07259195 55.86875916 35.05970764 C62.62648911 35.02054569 69.38390669 34.95563698 76.14135742 34.88354492 C120.40893573 34.42941816 120.40893573 34.42941816 141.25 41 C142.08144531 41.2475 142.91289062 41.495 143.76953125 41.75 C149.21688957 43.38676494 154.61309283 45.17524586 160 47 C160 47.66 160 48.32 160 49 C159.39865234 49.0093457 158.79730469 49.01869141 158.17773438 49.02832031 C146.57356607 49.25198342 135.30142431 49.89157501 123.875 52 C89.50925712 58.19828588 55.14372835 52.74673423 21.1171875 46.73828125 C18.76621986 46.32676033 16.41522671 45.91538511 14.06420898 45.50415039 C9.4036547 44.68846491 4.74800561 43.8499386 0.09399414 42.99780273 C-23.26755824 38.57800646 -23.26755824 38.57800646 -46.3828125 42.34375 C-55.82203001 44.71059857 -65.88818981 41.79394216 -75.25 40.0625 C-76.80455974 39.78119408 -78.35924658 39.5005896 -79.9140625 39.22070312 C-91.10015685 37.19922915 -91.10015685 37.19922915 -94.58691406 36.42724609 C-97.48442952 35.9142299 -100.27704115 35.81949841 -103.21875 35.75390625 C-104.39824219 35.72103516 -105.57773438 35.68816406 -106.79296875 35.65429688 C-109.26422933 35.59310128 -111.73558966 35.53580918 -114.20703125 35.48242188 C-115.38652344 35.44826172 -116.56601563 35.41410156 -117.78125 35.37890625 C-119.3909668 35.34132202 -119.3909668 35.34132202 -121.03320312 35.30297852 C-124.03543748 34.99638101 -126.27345098 34.26080823 -129 33 C-126.51602229 26.65521122 -119.68435525 22.92668118 -113.87109375 19.88671875 C-101.65469767 15.22488463 -86.85078899 15.71993752 -73.99414062 15.42919922 C-64.50204588 15.16316517 -54.82725434 14.83207186 -47 9 C-45.35944257 7.03133109 -43.87710858 5.00301949 -42.41015625 2.90234375 C-33.00448877 -9.78618829 -12.81532728 -3.55347048 0 0 Z " fill="#FD0000" transform="translate(282,423)"/>
<path d="M0 0 C-0.60032387 15.2482262 -6.07314299 29.6211365 -16.625 40.8125 C-33.46178398 56.32006419 -54.95814386 62.05608733 -76.61328125 67.38671875 C-77.91252785 67.70743095 -77.91252785 67.70743095 -79.23802185 68.03462219 C-83.61645065 69.11342884 -87.99736601 70.17916118 -92.38452148 71.22192383 C-100.36090294 73.1430166 -108.17906895 75.22644021 -115.875 78.08984375 C-116.51391174 78.32674927 -117.15282349 78.56365479 -117.81109619 78.80773926 C-125.77626181 81.90178992 -131.85058379 86.21529621 -137 93 C-135.37384766 92.89558594 -135.37384766 92.89558594 -133.71484375 92.7890625 C-121.03456317 92.26260749 -109.28536236 94.17310466 -96.97827148 96.95361328 C-85.99230199 99.34134936 -77.24393021 99.11942682 -66.625 95.5625 C-38.57526509 86.22182741 -7.15154723 90.92456213 21.328125 95.98046875 C22.33875504 96.15933624 23.34938507 96.33820374 24.39064026 96.52249146 C29.48053911 97.42692391 34.56583999 98.3502657 39.64624023 99.30664062 C58.5388018 102.79884986 75.04363581 104.4629716 91.625 93.0625 C92.26034668 92.6197876 92.89569336 92.1770752 93.55029297 91.72094727 C113.15604575 78.06286464 136.30454373 77.97591267 159.3125 79.8125 C160.87967773 79.91788086 160.87967773 79.91788086 162.47851562 80.02539062 C169.33680431 80.57039132 174.26741956 81.35267248 179.37890625 86.3046875 C180.09949219 87.15289062 180.82007813 88.00109375 181.5625 88.875 C183.9871676 91.6846655 186.36975 94.44494744 189.0625 97 C191 99 191 99 191 101 C185.12874778 101.58280812 180.43958284 101.91933643 175.5625 98.25 C173.4986149 96.48987219 171.80859216 94.77154548 170.0625 92.6875 C166.7246545 89.9565355 163.22049462 89.83955144 159 90 C151.13985243 91.40096439 145.24534242 96.98303507 140.5 103.125 C131.39070397 113.60069044 116.17046276 115.81802025 103 117 C96.94252918 117.35079414 90.87808629 117.34540289 84.8125 117.3125 C83.5798793 117.30627625 83.5798793 117.30627625 82.32235718 117.29992676 C62.52682088 117.16039112 46.74538881 114.13861679 28.14782715 107.30685425 C-5.23651663 95.04734971 -43.72482565 90.52836847 -77.6875 103.75 C-83.56819656 105.82891812 -89.86489551 105.70789667 -96 105 C-99.0625 103.125 -99.0625 103.125 -102 101 C-112.07878968 98.42184206 -122.49901177 98.75922856 -132.8125 98.875 C-134.39127029 98.88506103 -135.97004687 98.8941813 -137.54882812 98.90234375 C-141.36604453 98.92408436 -145.18295009 98.95843735 -149 99 C-148.56793097 97.41669317 -148.12422112 95.83656069 -147.67578125 94.2578125 C-147.42997314 93.37754395 -147.18416504 92.49727539 -146.9309082 91.59033203 C-143.71768952 82.64927505 -135.23489097 77.89222049 -127.08007812 73.94824219 C-111.60611546 66.89414935 -94.75589087 63.72099403 -78.21337891 60.19555664 C-53.79907309 55.3349653 -53.79907309 55.3349653 -35.5625 39.5625 C-33.32524645 35.88253154 -31.74431564 32.04850773 -30.125 28.0625 C-25.78434383 17.8067431 -13.01031042 0 0 0 Z " fill="#FB0000" transform="translate(1035,333)"/>
<path d="M0 0 C5.61235046 2.41059106 9.57663424 7.28266537 12.375 12.625 C13.62450326 17.3731124 14.12817949 22.02267632 14.24609375 26.921875 C14.27896484 28.03046875 14.31183594 29.1390625 14.34570312 30.28125 C14.40648517 32.57803528 14.46382505 34.87491446 14.51757812 37.171875 C14.72693629 43.99774109 15.4558424 50.35228439 17 57 C17.2475 58.4540625 17.2475 58.4540625 17.5 59.9375 C19.75350164 63.03606476 22.5926596 63.32585935 26.2109375 64.26953125 C38.3624803 67.45207817 45.84719147 73.08425582 52.2890625 83.8984375 C68.21638888 112.77126203 73.9318857 146.0853255 80.18572998 178.12731934 C87.28381855 218.60425472 87.28381855 218.60425472 112.01953125 249.76171875 C112.67308594 250.17035156 113.32664062 250.57898437 114 251 C114.60199219 251.37769531 115.20398438 251.75539063 115.82421875 252.14453125 C137.37569043 264.20793364 163.90499845 256.8278788 186.31640625 251.8125 C198.44310407 249.11834855 210.58520634 246.70731826 223 249 C224 250 224 250 224.3125 253.1875 C223.83360463 259.03002356 221.21051378 261.73446286 217.25 265.875 C213.43854443 268.99422184 209.1645968 271.23608962 204.8125 273.5 C204.11092773 273.87495605 203.40935547 274.24991211 202.68652344 274.63623047 C197.63005973 277.16204412 197.63005973 277.16204412 194.5546875 276.37109375 C193 275 193 275 192.3125 272.5625 C190.74823973 269.50846805 190.07668704 269.35251725 186.9375 268.25 C174.43345826 264.74807692 161.1445166 265.69303521 148.3125 266.5 C113.04699309 268.60189209 113.04699309 268.60189209 102.875 259.8125 C84.84170932 239.40640791 79.22983504 206.51826284 71.875 181 C57.34197904 126.37473438 57.34197904 126.37473438 21.86328125 84.5234375 C16.2156679 81.51856819 10.09854974 79.84180066 4 78 C-10.40526792 73.29695001 -10.40526792 73.29695001 -14.6875 65.3125 C-16.91276308 60.60305959 -18.09204765 56.1175496 -19 51 C-13.72 51.33 -8.44 51.66 -3 52 C-1.9171875 49.7725 -1.9171875 49.7725 -0.8125 47.5 C0.84514992 44.13747367 2.59649823 41.06387424 4.75 38 C7.5906228 33.50009277 8.40867492 29.29705574 8 24 C7.00315559 20.17876309 5.53462745 16.63279022 4 13 C3.23808827 10.98362754 2.48769546 8.96285744 1.75 6.9375 C1.41484375 6.03902344 1.0796875 5.14054688 0.734375 4.21484375 C0 2 0 2 0 0 Z " fill="#FC0000" transform="translate(849,958)"/>
<path d="M0 0 C4.21761831 1.75044943 5.26438033 3.74657286 7.11621094 7.76611328 C8.49768593 11.25796306 9.36928894 14.76503803 10.125 18.4375 C10.28967773 19.21029297 10.45435547 19.98308594 10.62402344 20.77929688 C12.94070119 32.07367436 14.36646742 43.45627642 14 55 C14.55300781 55.20238281 15.10601563 55.40476562 15.67578125 55.61328125 C18.90787519 57.54167343 20.92646704 60.24655925 23.1875 63.1875 C23.66799805 63.80898926 24.14849609 64.43047852 24.64355469 65.07080078 C47.88134174 95.71918417 56.6480637 134.60891626 62 172 C62.16012573 173.01404907 62.16012573 173.01404907 62.32348633 174.04858398 C63.46727448 182.31619407 63.10684558 190.73473404 63.0625 199.0625 C63.0574758 200.70768093 63.05291452 202.35286335 63.04882812 203.99804688 C63.03789342 207.99873498 63.0206793 211.99935088 63 216 C59.80493932 213.3270279 58.30344087 209.88638543 56.55859375 206.19921875 C55.88513539 204.81427326 55.21129374 203.4295141 54.53710938 202.04492188 C53.49474932 199.88676882 52.45629439 197.72695235 51.42553711 195.56323242 C45.03694296 182.1951108 37.44825931 170.41970724 27.5 159.375 C22.12647083 153.36370348 19.75556236 149.73692751 19.47265625 141.5859375 C19.40427063 140.09650316 19.33557407 138.60708306 19.26660156 137.11767578 C19.23377075 136.34264709 19.20093994 135.56761841 19.16711426 134.769104 C18.33201657 115.2316288 18.33201657 115.2316288 15 96 C14.73026367 94.86522217 14.73026367 94.86522217 14.45507812 93.70751953 C11.6234772 82.19311611 7.64154308 71.17283747 3.375 60.125 C-10.2763542 24.70502516 -10.2763542 24.70502516 -3.0703125 5.35546875 C-2 3 -2 3 0 0 Z " fill="#FD0000" transform="translate(767,706)"/>
<path d="M0 0 C5.87925987 -0.31496035 11.12815773 0.35025433 16.875 1.5625 C24.14787754 3.0648027 30.76307232 3.36702911 38.03515625 1.46875 C44.69802288 -0.12080069 52.00237205 0.6800789 58 4 C60.68850147 6.42113669 63.00452688 8.97791691 65 12 C65 12.66 65 13.32 65 14 C65.51304687 14.2475 66.02609375 14.495 66.5546875 14.75 C69.7975578 16.40769728 72.96038783 18.1991073 76.125 20 C76.75792969 20.35578125 77.39085937 20.7115625 78.04296875 21.078125 C80.63728981 22.55429919 82.87916966 23.87916966 85 26 C85.17944336 27.84423828 85.17944336 27.84423828 85.08984375 30.0703125 C85.06986328 30.885 85.04988281 31.6996875 85.02929688 32.5390625 C84.96892476 34.23975791 84.90395128 35.9402973 84.83398438 37.640625 C84.67899026 44.4603662 85.66414687 49.83396507 89.76953125 55.3984375 C107.49271038 72.54552859 127.73162189 80.85575548 151.23681641 87.24316406 C181.92751075 95.6493447 181.92751075 95.6493447 190 109 C189.67 109.66 189.34 110.32 189 111 C187.28683594 110.54560547 187.28683594 110.54560547 185.5390625 110.08203125 C175.70191389 107.52528021 165.87710592 105.37320079 155.875 103.5625 C139.79458244 100.57814303 125.43983016 95.8597926 111.04492188 88.10058594 C108.94028722 86.96786232 106.82228285 85.86308755 104.703125 84.7578125 C81.27959331 72.34282363 55.27677369 55.87813904 43.38671875 31.3125 C41.82958341 28.71581233 40.64022257 27.47471891 38 26 C31.71831414 25.03212695 26.45942469 25.64035403 21 29 C20.34 29 19.68 29 19 29 C18.773125 29.804375 18.54625 30.60875 18.3125 31.4375 C17 34 17 34 14.875 35.0625 C10.641905 34.9704762 6.05140722 33.05140722 3 30 C2.60049634 24.10732107 3.34327465 21.3134507 6 16 C5.46804363 13.85146564 5.46804363 13.85146564 4 12 C1.29163439 7.99161889 0.47252679 4.81977325 0 0 Z " fill="#FD0000" transform="translate(169,235)"/>
<path d="M0 0 C2.90938361 3.05858277 3.47070521 4.77694326 3.68359375 8.91796875 C3.06979183 15.51390364 0.41477418 21.70555439 -2.5625 27.5625 C-1.97235107 27.67319824 -1.38220215 27.78389648 -0.77416992 27.89794922 C1.90194946 28.40404992 4.57593703 28.9206489 7.25 29.4375 C8.17876953 29.61152344 9.10753906 29.78554688 10.06445312 29.96484375 C11.4034668 30.22587891 11.4034668 30.22587891 12.76953125 30.4921875 C13.59171143 30.64929199 14.4138916 30.80639648 15.26098633 30.96826172 C17.4375 31.5625 17.4375 31.5625 20.4375 33.5625 C17.00837494 35.03780777 13.79284661 35.9866749 10.12109375 36.640625 C-1.05075495 38.7331669 -10.72107268 40.70583139 -20.5625 46.5625 C-22.0475 47.0575 -22.0475 47.0575 -23.5625 47.5625 C-26.1742427 52.64088858 -27.12711974 57.35563589 -25.5625 62.875 C-23.91864124 67.38800113 -21.36132965 70.77441225 -18.28125 74.421875 C-16.46033298 76.68974438 -15.00775208 79.04212138 -13.5625 81.5625 C-14.0678125 82.30113281 -14.573125 83.03976562 -15.09375 83.80078125 C-19.68738788 90.97378325 -21.6183774 96.04844093 -20.5625 104.5625 C-20.04042969 104.73265625 -19.51835938 104.9028125 -18.98046875 105.078125 C-17.39885283 105.59886719 -15.81964987 106.12696414 -14.2421875 106.66015625 C-12.50253493 107.24595762 -10.75787745 107.81717411 -9.0078125 108.37109375 C-2.87409268 110.41870051 2.48163278 113.2398193 8.00317383 116.55151367 C14.17458297 120.16332089 20.63195073 122.41120175 27.4375 124.5625 C27.4375 125.8825 27.4375 127.2025 27.4375 128.5625 C7.82937998 140.40448259 7.82937998 140.40448259 -4.5625 137.5625 C-10.77355863 134.39607796 -15.81786924 129.03406024 -19.8125 123.375 C-23.76489203 119.33278087 -28.27426734 118.27088647 -33.5625 116.5625 C-38.25127648 114.63675252 -40.45117481 113.22963989 -42.5625 108.5625 C-45.6801878 98.35915812 -42.22463242 90.06115597 -38.5625 80.5625 C-37.79644043 78.44323651 -37.04528323 76.3184983 -36.3125 74.1875 C-35.99796875 73.29289062 -35.6834375 72.39828125 -35.359375 71.4765625 C-33.53810686 64.8164349 -33.45377528 58.26323897 -33.60546875 51.41796875 C-33.62785998 49.67123535 -33.64931506 47.92448974 -33.66992188 46.17773438 C-33.70689166 43.46571912 -33.74990475 40.75434647 -33.80932617 38.04272461 C-34.2964387 14.64643345 -34.2964387 14.64643345 -26.375 5.625 C-18.78660983 -1.09153258 -9.62621771 -3.88426329 0 0 Z " fill="#FD0000" transform="translate(659.5625,250.4375)"/>
<path d="M0 0 C10.81769331 -0.84476564 19.53259794 2.01960025 27.85546875 9.0078125 C37.07888514 17.57601351 37.07888514 17.57601351 39.1875 23.125 C38.98994232 26.15421779 38.09694768 28.02220752 36.72265625 30.6875 C35.70033053 33.95894232 36.00486443 37.02004995 36.0625 40.4375 C35.87160478 45.24805965 35.72828025 47.24601574 32.34375 50.75 C24.46875 56 24.46875 56 21 56 C21.05800781 57.24136719 21.11601563 58.48273438 21.17578125 59.76171875 C21.22269238 61.40360814 21.26819109 63.04553832 21.3125 64.6875 C21.35439453 65.50412109 21.39628906 66.32074219 21.43945312 67.16210938 C21.52652792 71.46360448 21.43540867 73.40405397 18.828125 76.97265625 C10.73720594 82.77263828 -2.13960234 83.76857674 -11.8125 82.5 C-16.11427805 80.47563386 -18.88780296 77.53787749 -22 74 C-26.75423025 77.18675924 -30.64563069 80.58324528 -34.375 84.9375 C-43.59038787 95.43324193 -52.93083485 99.63971797 -66.6875 100.75 C-71.63375047 101.0633844 -76.11170307 100.82831219 -81 100 C-78.77667583 97.46181073 -77.08102378 96.49190196 -73.83203125 95.640625 C-72.62087646 95.30357544 -72.62087646 95.30357544 -71.38525391 94.9597168 C-70.53624512 94.72551025 -69.68723633 94.49130371 -68.8125 94.25 C-60.58293611 91.7983623 -54.23552194 89.45934676 -49.67578125 81.765625 C-48.8588654 80.22972012 -48.05260182 78.6880956 -47.2578125 77.140625 C-43.24093194 70.30444318 -36.35450334 67.17601237 -29 65 C-12.66398016 61.29014259 -12.66398016 61.29014259 -6.1875 64.3125 C-4 66 -4 66 -2.5 67.625 C-0.48463916 69.4724141 1.33833049 69.64031493 4 70 C9.59010853 62.12302888 9.31679078 52.7950507 9.25 43.5 C9.25773438 42.42363281 9.26546875 41.34726562 9.2734375 40.23828125 C9.2476774 29.66375975 7.28444519 21.79053492 2.390625 12.5078125 C0.21143697 8.14943645 -0.33644922 4.84736098 0 0 Z " fill="#FC0000" transform="translate(742,303)"/>
<path d="M0 0 C0.66 0 1.32 0 2 0 C3.83447825 20.25363147 0.20679858 35.56639946 -7.09204102 54.48901367 C-8.87686597 59.42499772 -9.2448935 63.95475665 -9.3125 69.1875 C-9.34150391 69.88552734 -9.37050781 70.58355469 -9.40039062 71.30273438 C-9.56869393 86.1522646 -3.56841795 100.81799361 1.4375 114.5625 C13.06192033 146.7539722 13.06192033 146.7539722 15.25 161.25 C15.40984375 162.22195313 15.5696875 163.19390625 15.734375 164.1953125 C17.82151821 177.30952898 18.23641338 190.31254037 18.25 203.5625 C18.25167175 204.42751129 18.25334351 205.29252258 18.25506592 206.18374634 C18.25652376 218.9059089 17.75659239 231.51571194 16.625 244.1875 C16.56187622 244.89931427 16.49875244 245.61112854 16.43371582 246.34451294 C15.6215156 255.28326807 14.47218349 264.14516595 13 273 C4.46804553 272.28900379 -1.78783335 268.78860983 -8 263 C-9.37705764 261.36927384 -10.72722111 259.7133562 -12 258 C-10.24192518 254.0267509 -7.68546513 251.44551144 -4.65625 248.390625 C-0.65997693 242.62241953 -0.57864336 235.0013195 -0.1484375 228.1953125 C-0.05239227 226.78480118 -0.05239227 226.78480118 0.04559326 225.34579468 C0.24952887 222.27277737 0.43923984 219.19916719 0.625 216.125 C0.69003723 215.06821045 0.75507446 214.0114209 0.82208252 212.92260742 C5.38072183 162.67139276 5.38072183 162.67139276 -4.60546875 114.1875 C-15.42121431 89.46579585 -18.45156243 65.01830338 -8.54296875 39.5390625 C-6.41742695 34.1956546 -4.21846002 28.88474557 -1.96801758 23.59277344 C0.00993134 18.29496322 0.1275872 13.29000556 0.0625 7.6875 C0.05798828 6.94693359 0.05347656 6.20636719 0.04882812 5.44335938 C0.03712175 3.62887101 0.01918898 1.81442466 0 0 Z " fill="#FC0000" transform="translate(767,652)"/>
<path d="M0 0 C-0.42510488 11.05272692 -6.55289716 21.06378659 -14 29 C-22.53919871 36.82176603 -32.25547926 40.43198581 -43.734375 40.265625 C-53.37250216 39.4816625 -61.40809345 34.92265179 -69.56933594 30.08618164 C-76.76832723 25.82824167 -83.73996994 24.41766212 -92.02832031 26.51269531 C-97.42251247 28.13411314 -102.70915702 30.07281073 -108 32 C-128.34655711 39.3109174 -145.64875305 40.96676862 -166 33 C-166.66 32.34 -167.32 31.68 -168 31 C-163.78753622 29.40158701 -160.42502963 28.78027194 -155.9296875 28.91015625 C-154.785 28.93013672 -153.6403125 28.95011719 -152.4609375 28.97070312 C-150.09363044 29.03130412 -147.72643174 29.09631895 -145.359375 29.16601562 C-132.28053389 29.37814448 -122.56193661 26.19914294 -111.125 20.0625 C-92.15226954 10.28314777 -74.95161178 6.30243277 -54 12 C-50.70737773 13.12439938 -47.43474547 14.25357977 -44.1953125 15.5234375 C-36.7906838 16.62779533 -29.99629979 12.10543009 -23.75 8.5625 C-8.1693976 0 -8.1693976 0 0 0 Z " fill="#FC0000" transform="translate(894,362)"/>
<path d="M0 0 C12.46470934 7.0137814 19.23302172 19.14019039 23.015625 32.59765625 C24.53725829 39.04452342 24.55173177 45.04166696 24.1796875 51.625 C24.12329102 52.78185303 24.06689453 53.93870605 24.00878906 55.13061523 C23.5643787 63.27205836 22.9168823 71.39231141 22.0546875 79.5 C21.90942627 81.00469849 21.90942627 81.00469849 21.76123047 82.53979492 C20.91360595 89.62419531 19.131831 97.31615572 13.75195312 102.40673828 C10.4550312 104.53038851 7.44750272 105.154537 3.5703125 105.52734375 C2.76883789 105.60718506 1.96736328 105.68702637 1.14160156 105.76928711 C0.2323291 105.85255249 0.2323291 105.85255249 -0.6953125 105.9375 C-0.58461426 105.3297876 -0.47391602 104.7220752 -0.35986328 104.09594727 C2.51413467 88.22017396 4.94858618 72.47565622 6.0546875 56.375 C6.11164795 55.64885498 6.1686084 54.92270996 6.22729492 54.17456055 C6.65103665 46.95929619 5.01895166 40.944425 1.8046875 34.4375 C-2.67998754 24.75377691 -2.94072496 16.40843167 -2.6953125 5.9375 C-3.46875 6.2984375 -4.2421875 6.659375 -5.0390625 7.03125 C-15.99412456 11.91221825 -15.99412456 11.91221825 -22.6953125 10.9375 C-24.41015625 9.40625 -24.41015625 9.40625 -25.6953125 7.9375 C-24.45013285 6.80716702 -23.19894598 5.68344964 -21.9453125 4.5625 C-21.24921875 3.93601563 -20.553125 3.30953125 -19.8359375 2.6640625 C-13.9647852 -2.07142896 -7.05326488 -2.78041746 0 0 Z " fill="#FC0000" transform="translate(711.6953125,251.0625)"/>
<path d="M0 0 C1.08333333 0.8125 2.16666667 1.625 3.25 2.4375 C3.98734375 2.98535156 4.7246875 3.53320312 5.484375 4.09765625 C7.22324566 5.41260968 8.94096567 6.75583485 10.640625 8.12109375 C24.56201692 19.09464995 39.73980245 24.80680237 56.7265625 29.23828125 C68.7032067 32.38213511 77.58659245 35.42086707 85 46 C87.15364855 50.15040879 87.31099899 54.03700448 87.25 58.625 C87.24613281 59.33720703 87.24226562 60.04941406 87.23828125 60.78320312 C87.17296921 64.79989362 86.83862003 68.55848585 86 72.5 C84.2056927 81.0944719 82.84877291 92.56038474 87.671875 100.35546875 C89.64338636 102.7966637 91.84540052 104.9340742 94.125 107.0859375 C101.08465158 114.19058182 105.05479132 121.42574243 105.125 131.4375 C105.09326375 132.95857296 105.05506505 134.47959282 105 136 C102.90720689 133.31100421 101.16269932 130.59555427 99.5 127.625 C95.6696817 121.15176208 90.95583222 115.42207482 86.25830078 109.56982422 C79.7546959 101.45609132 75.31400508 94.73826862 76.1640625 83.91015625 C76.25429688 83.21792969 76.34453125 82.52570313 76.4375 81.8125 C78.21426387 68.83150429 78.21426387 68.83150429 74.3515625 56.72265625 C67.76119441 48.32279403 58.95666317 44.97937647 49.34716797 40.97753906 C10.53657786 24.8138608 10.53657786 24.8138608 1 5 C0.32421875 2.1796875 0.32421875 2.1796875 0 0 Z " fill="#FB0000" transform="translate(621,708)"/>
<path d="M0 0 C0.33 0 0.66 0 1 0 C1.01458252 0.64960693 1.02916504 1.29921387 1.04418945 1.96850586 C1.11941662 4.9587194 1.21582612 7.94790597 1.3125 10.9375 C1.33505859 11.95908203 1.35761719 12.98066406 1.38085938 14.03320312 C1.69261058 24.61834055 1.69261058 24.61834055 6.56640625 33.68969727 C11.42894974 37.80748071 17.54680312 40.40870187 23.27612305 43.10961914 C29.65346524 46.14736778 34.30401195 49.22783673 37.26953125 55.8125 C40.00373611 64.00049315 37.03846243 72.27279202 34 80 C32.49222354 82.8532427 30.86594732 85.35657463 29 88 C22.31163984 87.46493119 18.36315447 85.49444083 13.75 80.625 C9.93068633 76.97929149 5.55669461 74.62355144 1 72 C-0.52618395 71.09226967 -2.04757258 70.17639447 -3.5625 69.25 C-4.20316406 68.86328125 -4.84382812 68.4765625 -5.50390625 68.078125 C-7 67 -7 67 -8 65 C-0.63428929 66.18965087 6.69481007 67.48077909 14 69 C13.28765464 67.55409047 12.55426662 66.11853898 11.8125 64.6875 C11.20341797 63.48673828 11.20341797 63.48673828 10.58203125 62.26171875 C9.11219177 59.83048701 9.11219177 59.83048701 6.453125 58.484375 C1.91859433 55.74055071 1.32258336 50.90040846 0 46 C-0.81051661 42.65759062 -1.54730172 39.30414027 -2.25 35.9375 C-2.42539307 35.1112915 -2.60078613 34.28508301 -2.78149414 33.43383789 C-4.55937852 24.36689654 -4.49926859 16.27442263 -2 7.375 C-1.80921875 6.65699219 -1.6184375 5.93898438 -1.421875 5.19921875 C-0.95892912 3.4631717 -0.4811008 1.73110377 0 0 Z " fill="#FC0000" transform="translate(584,315)"/>
<path d="M0 0 C1.69921875 1.765625 1.69921875 1.765625 1.80541992 4.37597656 C1.77037354 5.16456055 1.73532715 5.95314453 1.69921875 6.765625 C-7.46099241 10.93142115 -16.79817922 13.90458456 -26.45263672 16.67773438 C-28.9046019 17.38452 -31.35067119 18.10949803 -33.796875 18.8359375 C-49.25773717 23.35846695 -64.37419335 26.34144737 -80.55078125 26.140625 C-81.75734375 26.13047363 -82.96390625 26.12032227 -84.20703125 26.10986328 C-98.93032723 25.85292265 -113.59732684 23.73432536 -124.55078125 12.890625 C-125.48416104 11.86390723 -126.40816055 10.82796935 -127.30078125 9.765625 C-123.4857467 8.49394682 -122.825804 9.27314217 -119.30078125 11.015625 C-92.04606048 22.87555804 -62.19637667 15.32545682 -35.8515625 5.046875 C-33.36717295 4.06261103 -30.89794827 3.05227569 -28.4296875 2.02734375 C-19.72587496 -1.48243334 -8.87098463 -4.75930584 0 0 Z " fill="#FC0000" transform="translate(1076.30078125,462.234375)"/>
<path d="M0 0 C0.69069482 14.93947304 -0.73321021 31.6215775 -11.0625 43.33984375 C-13.01059931 45.2628756 -14.99948208 47.13196671 -17 49 C-20.33635182 52.96191779 -20.4370402 56.46186566 -20.3046875 61.4765625 C-19.94616562 64.44585907 -18.84652777 66.88165948 -17.671875 69.61328125 C-15.63861307 76.83608961 -16.69739895 85.20905287 -17.6875 92.5625 C-18.20868388 96.86048214 -17.35338544 99.28889218 -15 103 C-14.67 103.99 -14.34 104.98 -14 106 C-18.45201856 104.639661 -20.64245464 103.04150633 -23 99 C-23.43743056 96.50836122 -23.63307537 94.06306591 -23.796875 91.5390625 C-24.1571083 87.0361462 -25.42113296 82.80470311 -26.796875 78.515625 C-30.59743901 66.11001042 -29.71973029 56.59266765 -24 45 C-21.20723545 39.2563416 -21.20723545 39.2563416 -21 33 C-23.18043476 30.72520043 -23.18043476 30.72520043 -26 28.8125 C-27.69574228 27.58073165 -29.37049855 26.31815028 -31 25 C-31 24.34 -31 23.68 -31 23 C-30.38761475 22.74710205 -29.77522949 22.4942041 -29.14428711 22.23364258 C-21.8272517 18.93492748 -16.99396184 14.51447895 -11.5625 8.6875 C-10.00814389 7.03909454 -8.44726053 5.39681151 -6.87890625 3.76171875 C-6.2041626 3.03944092 -5.52941895 2.31716309 -4.83422852 1.57299805 C-3 0 -3 0 0 0 Z " fill="#FC0000" transform="translate(655,594)"/>
<path d="M0 0 C2.9466558 1.4733279 3.10705464 3.51845553 4.25 6.5625 C7.39113346 14.309401 11.18716067 21.24983712 19 25 C24.86797596 25.40996287 28.71453787 24.68192853 34.1875 22.3125 C35.50112499 21.76129652 36.81493038 21.21052277 38.12890625 20.66015625 C39.41957104 20.10747138 40.70994652 19.55411026 42 19 C50.64723447 15.33659068 58.64097474 13.02627609 68 12 C68 12.66 68 13.32 68 14 C67.14619751 14.45270264 67.14619751 14.45270264 66.27514648 14.91455078 C63.65767642 16.30901082 61.04764145 17.71687338 58.4375 19.125 C57.09461914 19.8365625 57.09461914 19.8365625 55.72460938 20.5625 C48.66589344 24.38920315 42.35547728 28.38659799 37.9375 35.25 C35.2674289 38.91001913 33.61371681 40.2310472 29 41 C19.9635315 42.32272945 11.92449813 42.46224906 3.625 38.3125 C-1.49143361 33.80516563 -3.65615023 28.64197192 -4.15625 21.890625 C-4.43803728 14.51719112 -3.33130575 6.66261149 0 0 Z " fill="#FB0000" transform="translate(928,1244)"/>
<path d="M0 0 C0.99 0.33 1.98 0.66 3 1 C5.08388825 7.25166475 4.08613357 13.02034932 2.5859375 19.27734375 C0.79967391 27.39754139 0.01883652 35.47125676 -0.625 43.75 C-0.68626068 44.50746521 -0.74752136 45.26493042 -0.81063843 46.04534912 C-3.34435648 77.41249094 -3.64571821 105.20806529 7.54907227 135.125 C8 137 8 137 7 140 C-15.0204022 101.60401951 -12.53176229 59.09014903 -5 16.5 C-4.8462793 15.62875488 -4.69255859 14.75750977 -4.53417969 13.85986328 C-3.57777433 8.8847733 -2.16755543 4.58142397 0 0 Z " fill="#FA0000" transform="translate(667,1052)"/>
<path d="M0 0 C0.495 0.99 0.495 0.99 1 2 C-0.13305664 4.69189453 -0.13305664 4.69189453 -1.91015625 8.1328125 C-2.22861008 8.75293716 -2.5470639 9.37306183 -2.87516785 10.01197815 C-3.92847288 12.05453599 -4.99463414 14.09002096 -6.0625 16.125 C-6.42525024 16.82194977 -6.78800049 17.51889954 -7.16174316 18.23696899 C-13.52861448 30.46514012 -20.26793784 42.44114331 -27.36376953 54.26269531 C-28.97855678 56.96412691 -30.56832751 59.67887062 -32.15234375 62.3984375 C-38.20482347 72.73278624 -44.66529579 82.53002828 -52 92 C-52.69351563 92.90234375 -53.38703125 93.8046875 -54.1015625 94.734375 C-57.57748376 98.88259379 -60.9505843 101.81368948 -66.4375 102.3125 C-67.283125 102.209375 -68.12875 102.10625 -69 102 C-70.54586876 98.90826248 -70.29359521 96.40570448 -70 93 C-67.24488635 89.68999227 -64.02497678 87.66697131 -60.375 85.4375 C-41.83283025 73.21857018 -30.65889673 51.55379017 -21.0625 32.125 C-18.11034084 26.15981242 -15.08916483 20.23758763 -11.9375 14.375 C-11.55021729 13.62879395 -11.16293457 12.88258789 -10.76391602 12.11376953 C-7.95543788 6.96401694 -4.6870276 3.51463857 0 0 Z " fill="#F50000" transform="translate(678,767)"/>
<path d="M0 0 C3.75930017 1.42002762 7.22999696 3.12649833 10.75 5.0625 C11.71421875 5.58972656 12.6784375 6.11695313 13.671875 6.66015625 C16 8 16 8 17 9 C18.09347273 35.2700156 8.63368408 62.52208249 0 87 C-0.33 87 -0.66 87 -1 87 C-0.25860759 77.48223666 1.48432864 68.17190785 3.18359375 58.78710938 C4.47112409 51.53046647 5.51983477 44.35598581 6 37 C6.0505957 36.25177979 6.10119141 35.50355957 6.15332031 34.73266602 C6.64310608 26.01109464 6.43853105 19.30522112 2.1796875 11.44921875 C0.35290082 7.65651925 0.20519685 4.17233586 0 0 Z " fill="#FB0000" transform="translate(661,823)"/>
<path d="M0 0 C1.134375 0.433125 2.26875 0.86625 3.4375 1.3125 C3.4375 2.3025 3.4375 3.2925 3.4375 4.3125 C-12.4870336 7.62219864 -30.87043652 6.65853174 -45.5625 -0.6875 C-45.2325 -1.6775 -44.9025 -2.6675 -44.5625 -3.6875 C-33.25861763 -9.33944119 -11.4361221 -3.7407876 0 0 Z " fill="#FC0000" transform="translate(200.5625,401.6875)"/>
</svg>
